<?xml version="1.0" encoding="utf-8"?>
<!-- Generator: Adobe Illustrator 26.2.1, SVG Export Plug-In . SVG Version: 6.00 Build 0)  -->
<svg version="1.1" id="图层_1" xmlns="http://www.w3.org/2000/svg" x="0px" y="0px"
     viewBox="0 0 1000 1000" style="enable-background:new 0 0 1000 1000;" xml:space="preserve">
<style type="text/css">
	.st0{fill:#00A0E9;}
	.st1{fill:#FFFFFF;}
	.st2{fill:#515151;}
</style>
    <g id="_x23_00a0e9ff">
	<path class="st0" d="M469.5,42.9c1.1-1.4,3-0.8,4.5-1c18.8,0.1,37.7-0.1,56.5,0.1c3.5,2.1,8.1,0.3,12,1c3,2.6,7.9-0.7,11,1.9
		c2.7,0.1,5.4,0,8,0.1c1.8,1.8,4.7,0.6,7,1c1.8,2.1,5.2-0.2,7,1.8c1.7,0.1,3.4,0.1,5.1,0.2c1.2,1.5,3.3,0.8,5,1
		c1.8,2,5.1-0.2,6.9,1.8c1,0.1,2,0.1,3.1,0.2c1.5,1.8,4.4,0,5.9,1.8c1,0.1,2,0.1,3.1,0.2c1.5,1.8,4.4,0,5.9,1.8c1,0.1,2,0.1,3.1,0.2
		c1.3,1.4,3.6,0.4,5,1.8c0.5,0.1,1.5,0.2,2.1,0.3c1.3,1.4,3.6,0.4,4.9,1.7c0.5,0.1,1.5,0.2,2,0.3c1.3,1.4,3.6,0.4,4.9,1.7
		c0.5,0.1,1.5,0.2,2.1,0.3c0.9,0.6,1.9,1,3,1.1c1.5,1.1,3.6,0.3,4.9,1.6c0.5,0.1,1.5,0.2,2.1,0.3c0.9,0.6,1.9,1,3,1.1
		c1.3,0.5,2.6,0.9,3.8,1.5c1.7,0.8,3.4,1.3,5.1,2c1,0.2,2,0.5,3,1c1.5,0.3,2.8,0.9,4.1,1.5c1.3,0.5,2.6,1,3.9,1.5
		c1.7,0.4,3.5,1,4.9,2.1c1.6,0.7,3.3,1.2,5,1.9c2,1.1,4.2,1.6,6.2,2.5c0.5,0.3,1.5,0.8,2,1c2.1,1.4,4.8,1.8,7,3c0.5,0.2,1.5,0.8,2,1
		c1.3,0.7,2.6,1.4,4,2c0.9,0.5,1.8,1,2.8,1.5c1.1,0.5,2.2,1,3.2,1.5c0.9,0.5,1.8,1,2.8,1.5c1.1,0.5,2.2,1,3.2,1.5c1.9,1.1,4,2.1,6,3
		c0.9,0.5,1.9,1,2.8,1.4c1.4,0.8,2.8,1.8,4.2,2.6c1.6,0.8,3.2,1.6,4.9,2.4c1.7,1,3.2,2.2,5,3.1c1.7,0.9,3.2,2.1,5,3
		c2.8,1.4,5.1,3.6,8,5c9.9,6.3,19.7,12.8,28.9,20c4.8,3.8,10.2,7,14.5,11.5c3.1,1.4,4.8,4.6,7.8,6.1c2.1,1.2,3.3,3.4,5.3,4.9
		c4.1,2.4,6.9,6.4,10.4,9.5c5,3.1,8.7,8,13,12c3.2,3.5,7.2,6.3,9.5,10.4c3.2,3.8,7.5,6.6,10,11c1.6,2.1,4,3.4,5.2,5.8
		c1.2,2.4,3.8,3.6,5,6c1.1,2.2,3.4,3.3,4.6,5.4c6.5,9.1,13.7,17.7,19.7,27.1c3.3,5,6.8,9.9,9.9,15c0.9,2.1,2.5,3.8,3.4,5.8
		c0.9,1.7,2.2,3.2,3,5c0.8,1.4,1.7,2.8,2.6,4.2c0.2,0.5,0.7,1.5,0.9,2c0.5,0.9,1,1.9,1.4,2.8c0.8,1.4,1.8,2.7,2.7,4.1
		c0.2,0.5,0.7,1.5,0.9,2s0.7,1.5,1,2c0.7,1.3,1.4,2.6,2,4c0.8,1.3,1.4,2.6,2,4c0.5,0.9,1,1.9,1.5,2.8c0.2,0.5,0.7,1.5,1,2
		c0.6,1.4,1.2,2.7,2,4c1,2,1.9,4.1,3,6c0.9,2,1.5,4.2,2.5,6.2c0.3,0.5,0.8,1.5,1,2c1.6,2.4,1.7,5.5,3.5,7.8c0.9,2,1.4,4.2,2.5,6.2
		c0.5,0.9,0.8,1.9,1,3c0.6,1.7,1.2,3.4,2,5.1c0.5,1.3,0.9,2.6,1.5,3.8c0.2,1.1,0.5,2.1,1,3c0.3,1.5,0.9,2.8,1.6,4.1
		c0.4,0.9,0.8,1.9,1,2.9c0.4,0.9,0.8,1.9,1,3c0.5,0.9,0.8,1.9,1,3c1,1.5,0.4,3.5,1.5,4.9c0.1,1.1,0.5,2.1,1.1,3
		c0.1,0.5,0.2,1.5,0.3,2c1.3,1.4,0.4,3.6,1.7,5c0.1,0.5,0.2,1.5,0.3,2c1.3,1.4,0.4,3.6,1.7,5c0.1,0.5,0.2,1.5,0.3,2
		c1.1,1,0.8,2.6,1,4c1.1,1,0.7,2.6,1,4c1.1,1,0.7,2.6,1,4c1.6,1.6,0,4.4,1.7,5.9c0,1,0.1,2,0.2,3c1.4,1.3,0.7,3.3,1,5
		c2,1.8-0.2,5.1,1.8,6.9c0.3,1.7-0.4,3.7,1,5c0.3,2-0.6,4.4,1,6c0.3,2-0.6,4.5,1,6c0.1,2.3,0,4.7,0.1,7c1.8,1.8,0.6,4.7,1,7
		c2.6,3.4-0.8,8.6,1.9,12c0.2,3.7,0,7.4,0.1,11c1.4,1.1,0.8,3,1,4.5c-0.1,17.7-0.1,35.3,0,53c-0.2,1.5,0.5,3.4-1,4.5
		c-0.2,3.7,0,7.4-0.1,11c-2.6,3.4,0.8,8.6-1.9,12c-0.5,2.6,0.9,5.8-1,8c-0.1,2-0.1,4-0.1,6c-1.6,1.5-0.7,4-1,6c-1.6,1.5-0.7,4-1,6
		c-1.8,1.5,0,4.4-1.8,6c-0.3,2,0.6,4.4-1,6c-0.3,1.7,0.4,3.7-1,5c-0.1,1-0.1,2-0.2,3c-1.8,1.5-0.1,4.3-1.7,5.9c-0.3,1.3,0.1,2.9-1,4
		c-0.3,1.3,0.1,2.9-1,4c-0.3,1.3,0.1,3-1,4c-0.1,0.5-0.2,1.5-0.3,2c-1.4,1.3-0.4,3.6-1.7,5c-0.1,0.5-0.2,1.5-0.3,2.1
		c-1.4,1.3-0.4,3.6-1.7,4.9c-0.1,0.5-0.2,1.5-0.3,2c-0.6,0.9-1,1.9-1.1,3c-1.1,1.5-0.3,3.6-1.6,5c-0.1,0.5-0.2,1.5-0.3,2
		c-0.6,0.9-1,1.9-1.1,3c-0.7,1.7-1.2,3.4-2,5.1c-0.5,1.3-0.9,2.6-1.6,3.9c-0.1,0.5-0.2,1.5-0.3,2c-0.7,1.2-1.1,2.6-1.6,3.9
		c-0.7,1.3-1.3,2.7-1.6,4.1c-0.5,1.3-0.9,2.6-1.4,3.9c-1.3,2.2-1.5,4.9-3.1,7c-0.9,2-1.5,4.2-2.4,6.3c-0.5,0.9-1.1,1.8-1.6,2.7
		c-0.9,2-1.5,4.2-2.5,6.3c-0.3,0.5-0.8,1.5-1,2c-0.9,1.6-1.6,3.2-2.5,4.8c-0.5,1.1-1,2.1-1.5,3.2c-0.8,1.2-1.4,2.6-2,4
		c-1.3,2.2-2.2,4.6-3.5,6.8c-0.6,1.4-1.2,2.7-2,4c-0.2,0.5-0.7,1.5-0.9,2c-0.9,1.4-1.8,2.7-2.6,4.1c-0.5,0.9-1,1.9-1.4,2.8
		c-0.8,2.3-2.4,4.1-3.5,6.2c-0.9,2.1-2.5,3.8-3.4,5.8c-0.9,1.7-2.2,3.2-3,5c-4.7,7.5-9.8,14.7-14.6,22.1
		c-6.6,8.2-12.3,17.1-19.3,24.9c-1.2,2.6-4,4-5.3,6.5c-1.4,2.6-4.2,3.9-5.4,6.6c-2.8,3.5-6.3,6.4-9.4,9.7c-3.3,5.2-8.3,9-12.5,13.5
		c-3.3,3-6,6.8-9.9,9c-3.3,2.8-5.9,6.3-9.3,8.9c-3.6,1.8-5.5,5.9-9.1,7.7c-1.5,0.8-2.4,2.5-3.9,3.3c-2.8,1.3-4.3,4.3-7.1,5.7
		c-12.6,9.7-25.3,19.1-38.9,27.4c-2.8,1.5-5.1,3.7-8,5c-1.7,0.9-3.2,2.2-5,3c-1.5,0.8-2.8,1.8-4.2,2.6c-0.5,0.2-1.5,0.7-2,0.9
		c-0.9,0.5-1.9,1-2.8,1.4c-2.8,2-5.9,3.5-9,5c-1.1,0.5-2.2,1-3.2,1.5c-1.9,1.1-4,2.1-6,3c-0.9,0.5-1.8,1-2.8,1.5
		c-1.1,0.5-2.2,1-3.2,1.5c-1.3,0.8-2.6,1.4-4,2c-0.9,0.5-1.8,1-2.7,1.5c-2.1,0.9-4.2,1.5-6.3,2.5c-0.5,0.3-1.5,0.8-2,1
		c-2.2,1.4-4.8,1.8-7,3c-1.7,0.7-3.4,1.2-5,1.9c-1.7,1.3-3.9,1.7-5.8,2.5c-1.5,0.3-2.8,0.9-4.1,1.6c-1.3,0.5-2.6,0.9-3.9,1.4
		c-1.1,0.2-2.1,0.5-3,1c-1,0.2-2,0.5-2.9,1c-1.6,0.8-3.4,1.3-5.1,2c-1.1,0.1-2.1,0.5-3,1.1c-0.5,0.1-1.5,0.2-2,0.3
		c-1.4,1.3-3.5,0.5-4.9,1.6c-1.1,0.1-2.1,0.5-3,1.1c-0.5,0.1-1.5,0.2-2,0.3c-1.4,1.3-3.6,0.4-5,1.7c-0.5,0.1-1.5,0.2-2,0.3
		c-1.4,1.3-3.6,0.4-5,1.7c-0.5,0.1-1.5,0.2-2.1,0.3c-1.3,1.4-3.6,0.3-4.9,1.8c-1,0.1-2,0.1-3,0.2c-1.6,1.8-4.4,0-5.9,1.8
		c-1,0-2.1,0.1-3.1,0.2c-1.5,1.8-4.4,0-5.9,1.8c-1,0-2,0.1-3,0.2c-1.6,1.6-4,0.7-6,1c-1.3,1.5-3.3,0.7-5,1c-1.6,1.6-4,0.7-6,1
		c-1.8,2.1-5.2-0.3-6.9,1.9c-2.3,0.4-5.2-0.8-7,1c-2.4,0.1-4.7,0-7,0.1c-3.1,2.1-7.4,0.3-11,1c-3.7,2.7-9.3-0.8-13,1.9
		c-20,0.1-40,0.1-60,0c-3.7-2.7-9.3,0.8-13-1.9c-3.4-0.2-6.7,0-10-0.1c-2.1-2.3-5.9,0.4-8-1.9c-2.3-0.1-4.7-0.1-7-0.1
		c-1.8-2.1-5.2,0.2-7-1.8c-1.7-0.1-3.4-0.1-5-0.2c-1.3-1.5-3.4-0.8-5-1c-1.8-2-5.1,0.2-7-1.8c-1-0.1-2-0.1-3-0.2
		c-1.6-1.8-4.4,0-6-1.8c-1-0.1-2-0.1-3-0.2c-1.6-1.8-4.3-0.1-6-1.7c-1.4-0.3-3,0.1-4-1c-1.4-0.3-3,0.1-4-1c-0.5-0.1-1.5-0.2-2-0.3
		c-1.4-1.4-3.6-0.4-5-1.7c-0.5-0.1-1.5-0.2-2-0.3c-1.4-1.4-3.6-0.4-5-1.7c-0.5-0.1-1.5-0.2-2-0.3c-0.9-0.6-1.9-1-3-1.1
		c-1.5-1.1-3.6-0.3-5-1.6c-0.5-0.1-1.5-0.2-2-0.3c-0.9-0.6-1.9-1-3-1.1c-1.3-0.5-2.6-0.9-3.9-1.4c-1.3-0.7-2.7-1.3-4.1-1.6
		c-1-0.5-2-0.8-3-1c-1.3-0.5-2.6-0.9-3.9-1.5c-1.3-0.7-2.7-1.3-4.1-1.6c-1.7-0.7-3.4-1.2-5.1-1.9c-1.7-1.3-3.9-1.7-5.8-2.5
		c-2.2-1.3-4.9-1.6-7-3c-0.5-0.2-1.5-0.8-2-1c-2-1-4.2-1.5-6.2-2.5c-1.5-1-3.2-1.6-4.8-2.5c-1.8-0.8-3.5-1.7-5.2-2.5
		c-1.3-0.8-2.6-1.4-4-2c-1.3-0.8-2.6-1.4-4-2c-1.6-0.9-3.2-1.6-4.8-2.5c-1.4-0.6-2.7-1.3-4-1.9c-1.4-0.9-2.7-1.8-4.1-2.6
		c-1-0.5-1.9-1-2.8-1.4c-0.5-0.2-1.5-0.7-2-0.9c-1.7-1-3.2-2.2-5-3.1c-1.4-0.8-2.8-1.8-4.2-2.6c-2.9-1.3-5.2-3.5-8-5
		c-13.6-8.2-26.3-17.7-38.9-27.4c-2.6-1.2-4-4-6.5-5.3c-2.4-1.2-3.6-3.8-6-5s-3.7-3.7-5.8-5.2c-4.6-2.6-7.4-7.3-11.6-10.4
		c-2.5-1.3-4.3-3.7-6.3-5.6c-4.5-4.5-9.1-9-13.5-13.6c-3.2-5.6-9.3-8.8-12.5-14.4c-1.2-1.5-2.9-2.6-3.9-4.2c-1.5-3-4.7-4.7-6.1-7.8
		c-4.1-3.9-7.1-8.9-10.6-13.3c-8.5-10.8-16.1-22.3-23.4-33.9c-0.9-1.7-2.2-3.2-3-5c-0.8-1.4-1.8-2.8-2.6-4.2c-0.8-1.8-2.1-3.3-3.1-5
		c-0.2-0.5-0.7-1.5-0.9-2c-0.5-0.9-1-1.9-1.4-2.8c-0.8-1.4-1.8-2.8-2.6-4.2c-0.8-1.6-1.5-3.3-2.4-4.8c-0.6-1.4-1.2-2.7-2-4
		c-0.6-1.4-1.2-2.7-2-4c-0.2-0.5-0.8-1.5-1-2c-0.6-1.4-1.3-2.7-2-4c-0.5-1.1-1-2.2-1.5-3.2c-0.9-1.5-1.6-3.2-2.5-4.8
		c-1.1-2.3-1.5-4.9-2.9-7c-0.3-0.5-0.8-1.5-1-2c-1-2-1.5-4.2-2.5-6.2c-1.3-1.7-1.7-3.8-2.5-5.8c-0.7-1.3-1.3-2.7-1.6-4.1
		c-0.6-1.7-1.2-3.4-2-5.1c-0.5-1.3-1-2.6-1.6-3.9c-0.1-0.5-0.2-1.5-0.3-2c-0.8-1.6-1.3-3.4-2.1-5.1c-0.5-0.9-0.8-1.9-1-2.9
		c-0.5-0.9-0.8-1.9-1-3c-0.5-1-0.8-2-1-3c-1-1.5-0.5-3.5-1.5-4.9c-0.1-1.1-0.5-2.1-1.1-3c-0.1-0.5-0.2-1.5-0.3-2
		c-1.3-1.4-0.4-3.6-1.7-4.9c-0.1-0.5-0.2-1.5-0.3-2.1c-1.3-1.4-0.4-3.6-1.7-5c-0.1-0.5-0.2-1.5-0.3-2.1c-1.4-1.3-0.3-3.6-1.8-4.9
		c-0.1-1-0.1-2-0.2-3c-1.8-1.6,0-4.4-1.8-6c-0.1-1-0.1-2-0.2-3c-1.8-1.6,0-4.4-1.8-6c-0.1-1-0.1-2-0.2-3c-1.6-1.6-0.7-4-1-6
		c-1.8-1.5,0-4.4-1.8-6c-0.1-1.7-0.1-3.4-0.2-5c-2.1-1.8,0.2-5.2-1.9-7c-0.4-2.3,0.8-5.2-1-7c-0.1-2.7,0-5.4-0.1-8.1
		c-2.6-3,0.7-7.9-1.9-10.9c-0.2-3.7,0-7.4-0.1-11.1c-1.4-1.1-0.8-3-1-4.5c0.1-18.7-0.1-37.3,0.1-56c0.2-0.4,0.7-1.2,0.9-1.6
		c0.2-3.7,0-7.4,0.1-11c2.6-3.1-0.7-7.9,1.9-11c0.5-2.6-0.9-5.8,1-8c0.1-2.3,0-4.7,0.1-7c1.6-1.5,0.7-4,1-6c2.1-1.8-0.2-5.2,1.8-7
		c0.1-1.4,0.1-2.7,0.2-4.1c2-1.8-0.2-5.1,1.8-7c0.1-1,0.1-2,0.2-3c1.8-1.6,0-4.4,1.8-6c0.1-1,0.1-2,0.2-3c1.8-1.6,0-4.4,1.8-6
		c0.1-1,0.1-2,0.2-3c1.4-1.3,0.4-3.6,1.8-5c0.1-0.5,0.2-1.5,0.3-2c1.4-1.3,0.4-3.6,1.7-5c0.1-0.5,0.2-1.5,0.3-2
		c1.3-1.4,0.5-3.5,1.6-5c0.2-1.1,0.5-2.1,1.1-3c0.1-0.5,0.2-1.5,0.3-2c1.4-1.4,0.4-3.6,1.7-4.9c0.1-0.5,0.2-1.5,0.3-2
		c0.6-0.9,1-1.9,1.1-3c0.7-1.7,1.2-3.4,2-5.1c0.5-1.3,1-2.6,1.5-3.8c0.2-1.1,0.5-2.1,1-3c0.2-1,0.5-2,1-2.9c0.7-1.3,1.3-2.7,1.6-4.1
		c0.8-2,1.2-4.1,2.5-5.8c0.7-1.6,1.2-3.4,1.9-5c1-2,1.6-4.2,2.5-6.2c0.5-0.9,1.1-1.8,1.6-2.7c0.9-2.1,1.5-4.2,2.4-6.3
		c1-1.5,1.6-3.2,2.5-4.8c0.5-1.1,1-2.1,1.5-3.2c0.8-1.3,1.4-2.6,2-4c0.9-1.6,1.6-3.2,2.5-4.8c0.2-0.5,0.7-1.5,1-2s0.8-1.5,1-2
		c0.5-1.1,1-2.2,1.5-3.2c0.5-0.9,1-1.9,1.4-2.8c0.8-1.4,1.8-2.8,2.7-4.1c0.2-0.5,0.7-1.5,0.9-2c0.5-0.9,1-1.9,1.4-2.8
		c1-1.7,2.2-3.2,3-5c0.9-1.7,2.2-3.2,3-5c0.8-1.4,1.8-2.8,2.6-4.2c5.9-9.4,12-18.7,18.5-27.6c5.3-6.7,10-14,15.8-20.3
		c1.2-2.6,4-4,5.3-6.6c1.2-2.4,3.6-3.7,5.2-5.8c2.9-5.2,8.6-8.1,11.5-13.4c5.9-6.1,12-12.1,18.1-18c5.2-2.9,8.1-8.6,13.4-11.5
		c1.9-1.4,3.2-3.6,5.3-4.9c3-1.5,4.7-4.7,7.8-6.1c4.3-4.4,9.7-7.6,14.5-11.5c9.2-7.3,19-13.7,28.9-20c2.9-1.3,5.2-3.6,8-5
		c1.8-0.9,3.3-2.1,5-3c1.8-0.8,3.3-2.1,5-3c0.9-0.5,1.9-0.9,2.8-1.4c0.5-0.2,1.5-0.7,2-0.9c1.4-0.9,2.7-1.8,4.1-2.7
		c1.6-0.8,3.3-1.5,4.8-2.4c1.1-0.5,2.1-1,3.2-1.5c1.3-0.8,2.6-1.4,4-2c1.3-0.8,2.6-1.4,4-2c1.6-0.9,3.2-1.6,4.8-2.5c2-1,4.1-1.9,6-3
		c2-0.9,4.2-1.5,6.3-2.4c0.9-0.5,1.8-1.1,2.7-1.6c2-0.9,4.2-1.4,6.2-2.5c1.9-0.8,4.1-1.2,5.8-2.5c1.7-0.7,3.4-1.3,5.1-1.9
		c1.5-0.3,2.8-0.9,4.1-1.6c1.3-0.5,2.6-1,3.9-1.5c1.1-0.2,2.1-0.5,3-1c1-0.2,2-0.5,2.9-1c1.3-0.7,2.7-1.3,4.1-1.6
		c1.3-0.5,2.7-0.9,3.9-1.6c0.5-0.1,1.5-0.2,2-0.3c1.4-1.3,3.5-0.5,4.9-1.6c1.1-0.1,2.1-0.5,3-1.1c0.5-0.1,1.5-0.2,2-0.3
		c1.4-1.4,3.6-0.4,5-1.7c0.5-0.1,1.5-0.2,2-0.3c1.3-1.4,3.6-0.4,4.9-1.7c0.5-0.1,1.5-0.2,2-0.3c1.4-1.4,3.6-0.3,5-1.8
		c1-0.1,2-0.2,3-0.2c1.5-1.8,4.4,0,5.9-1.8c1-0.1,2-0.1,3-0.2c1.6-1.8,4.4,0,6-1.8c1-0.1,2-0.1,3-0.2c1.8-2,5.1,0.2,7-1.8
		c1.7-0.3,3.7,0.4,5-1c2-0.3,4.4,0.6,6-1c2-0.3,4.5,0.6,6-1c2.6-0.5,5.8,0.9,8-1c2.3-0.1,4.7,0,7-0.1c3.1-2.5,7.9,0.7,11-1.9
		C462.2,42.9,465.8,43.1,469.5,42.9 M482.3,126.4c-88.2,4-174.5,40.6-238.5,101.4c-45.6,42.8-80.1,97.3-99.4,156.8
		c-16.5,50.5-22,104.6-16,157.5c8.8,80.2,44.4,157.2,100,215.6c50.5,53.8,117.5,91.9,189.5,108.1c66.2,15.1,136.5,11.6,200.9-9.9
		c45.8-15.2,88.6-39.4,125.3-70.8c37.9-32.3,69.1-72.3,91.4-116.8c28.2-56.2,41.9-119.5,39.3-182.2c-2.8-76.9-30.2-152.6-77.2-213.5
		c-44.3-58-106.1-102.4-175.1-126C577.6,130.9,529.7,124.1,482.3,126.4z"/>
</g>
    <circle class="st1" cx="500.8" cy="500.6" r="402.8"/>
    <g id="_x23_515151ff">
	<path class="st2" d="M404.6,172.5c9.5-7.3,21.6-11.4,33.6-11.3c44.8,0,89.7,0,134.6,0c5.7,0,11.5-0.1,17,1.2
		c15.6,3.2,29.4,13.7,36.8,27.7c7.2,13.5,8.2,30.2,2.6,44.5c-7.1,19-25.6,32.6-45.9,34.4c0,55,0,110.2,0,165.2
		c0.1,10.6-0.9,21.5,1.3,31.9c4.1,19.8,11.5,38.8,19.3,57.4c4.9,10.8,9.2,22.1,15.7,32.1c29.6,48.4,59.3,97,88.7,145.4
		c4.4,7.3,9.2,14.6,12.6,22.3c6.9,15.7,9.9,33.6,5.8,50.4c-2.8,12.2-9.5,23.3-19.2,31.3c-9.1,7.4-20.5,11.9-32.3,12.4
		c-110.2,0.3-220.5,0.4-330.7,0.8c-14.8,0.1-29.6-5.7-40.1-16.2c-10.4-10.3-16.2-24.6-17.1-39.1c-1.3-19,5.4-37.7,15.8-53.2
		c30.6-51.2,61.1-102.3,91.7-153.6c6.8-10.8,12.2-22.6,17.3-34.3c6.4-14.4,12.2-28.9,16.5-43.9c2.3-7.8,3.9-15.9,3.9-24.1
		c0.4-31.1,0-62.2-0.1-93.4c0-30.6,0-60.9,0-91.5c-13.7-1.2-27.1-8-36-18.4c-9.7-11-14.7-26.1-13-40.6
		C384.9,195.4,392.7,181.4,404.6,172.5L404.6,172.5z M434.7,201.8c-6.1,1.2-11.2,7-11.2,13.4c-0.2,6.9,5.7,13.3,12.6,13.8
		c6.7,0.5,13.5-0.3,20.2,0.4c9.6,1.4,17,10.7,16.7,20.4c0.2,44.8-0.1,89.7,0.2,134.6c0.1,23.6,0.3,47.1-0.1,70.7
		c0,18.3-5.7,35.9-11.7,53.1c-7.6,20.5-16.5,40.6-26.7,60c-33.7,56.5-67.5,113.1-101.3,169.7c-3.7,6.4-6,13.8-5.8,21.3
		c0.2,5.6,1.9,11.4,6,15.2c3.5,3.2,8.5,3.9,13,3.9c106.6-0.2,213.2-0.4,319.8-0.7c4.5-0.1,9.5,0.8,13.6-1.8
		c5.8-3.4,8.4-10.3,8.7-16.7c0.2-9.3-3.2-18.3-7.8-26.2c-33.4-54.7-66.8-109.4-100.1-164.1c-10-19.6-18.5-40.1-25.9-60.8
		c-5.7-17.1-11-34.6-11.7-52.8c0-67.7,0-135.5,0-203.2c-0.3-9.7,5.9-19.9,15.7-22.2c7.4-1.4,15.3,0.2,22.9-1
		c6.9-1.4,12.1-8.7,10.6-15.7c-1-6.8-7.7-12.1-14.7-11.7c-46.2,0-92.4,0-138.6,0C437.7,201.5,436.1,201.6,434.7,201.8z"/>
        <path class="st2" d="M461.5,629.2c22.1-0.2,44.3,0,66.4-0.1c5.8-0.2,11.7,1.8,15.7,5.9c5.9,5.7,7.6,15.1,4.1,22.5
		c-3.1,6.9-10.3,11.8-18,11.8c-22.2,0-44.5,0-66.8,0c-6.4,0.1-12.6-3.2-16.2-8.3c-4.4-6-5-14.6-1.4-21.1
		C448.5,634,454.7,629.6,461.5,629.2z"/>
        <path class="st2" d="M407.6,705.1c4.8-1.1,9.7-0.7,14.7-0.8c7.2,0.1,14.7-0.2,21.9,0.1c10.3,0.7,18.8,10.6,18.1,21
		c-0.2,10-9.1,18.8-19.1,19.1c-10.3,0.1-20.5,0.1-30.9,0c-9.8-0.1-18.6-8.4-19.3-18.2C391.8,716.9,398.5,707.4,407.6,705.1z"/>
        <path class="st2" d="M507.4,705.9c3.7-1.1,7.7-0.8,11.6-0.9c26.5,0,53.1,0,79.8,0c6.8-0.2,13.5,3.4,17.1,9.1
		c4.4,6.6,4.3,15.7-0.1,22.1c-3.6,5.6-10.3,9.1-17,8.9c-28.3,0-56.5,0-84.8,0c-6,0.1-12.1-2.4-15.9-7c-4.6-5.3-6.1-13-3.7-19.6
		C496.2,712.7,501.4,707.9,507.4,705.9z"/>
</g>
</svg>
