<?xml version="1.0" encoding="UTF-8" ?>
<!DOCTYPE svg PUBLIC "-//W3C//DTD SVG 1.1//EN" "http://www.w3.org/Graphics/SVG/1.1/DTD/svg11.dtd">
<svg width="440pt" height="440pt" viewBox="0 0 440 440" version="1.1" xmlns="http://www.w3.org/2000/svg">
<g id="#ffffffff">
<path fill="#ffffff" opacity="1.00" d=" M 201.88 88.66 C 209.19 85.86 217.37 84.67 225.12 85.82 C 223.55 85.70 221.98 85.59 220.42 85.50 C 224.07 99.93 229.41 113.92 233.28 128.31 C 211.57 123.75 189.99 118.53 168.36 113.61 C 179.53 105.29 190.62 96.84 201.88 88.66 Z" />
</g>
<g id="#9eeeffff">
<path fill="#9eeeff" opacity="1.00" d=" M 233.28 128.31 C 229.41 113.92 224.07 99.93 220.42 85.50 C 221.98 85.59 223.55 85.70 225.12 85.82 C 233.60 86.54 240.49 92.04 246.81 97.24 C 278.80 122.53 310.35 148.37 342.00 174.07 C 346.48 177.91 351.49 181.20 355.10 185.96 C 363.08 195.81 372.17 205.40 376.23 217.67 C 384.52 237.15 393.51 256.32 402.52 275.46 C 404.82 279.52 404.95 284.26 405.65 288.76 C 406.02 292.47 406.00 296.26 405.12 299.91 C 405.15 299.19 405.20 297.76 405.22 297.04 C 348.15 241.11 291.08 185.18 234.01 129.25 C 233.82 129.01 233.46 128.54 233.28 128.31 Z" />
</g>
<g id="#baffd4ff">
<path fill="#baffd4" opacity="1.00" d=" M 150.56 113.73 C 156.42 112.74 162.54 112.06 168.36 113.61 C 189.99 118.53 211.57 123.75 233.28 128.31 C 233.46 128.54 233.82 129.01 234.01 129.25 C 233.37 139.16 234.10 149.10 233.54 159.01 C 233.35 198.56 232.72 238.11 232.52 277.66 C 232.52 280.30 232.50 282.95 232.48 285.60 C 184.13 252.88 135.97 219.87 87.79 186.90 L 87.60 186.22 C 92.38 177.72 98.10 169.71 103.35 161.47 C 111.77 148.97 120.03 136.29 129.71 124.71 C 134.76 118.30 142.73 115.10 150.56 113.73 Z" />
</g>
<g id="#0071ffff">
<path fill="#0071ff" opacity="1.00" d=" M 234.01 129.25 C 291.08 185.18 348.15 241.11 405.22 297.04 C 405.20 297.76 405.15 299.19 405.12 299.91 C 404.71 304.98 402.84 309.90 399.92 314.06 C 396.76 318.62 391.71 321.23 387.18 324.20 C 371.53 333.83 355.43 342.73 339.17 351.28 C 328.74 354.22 317.26 354.71 306.94 351.00 C 300.50 348.76 295.65 343.78 290.94 339.09 C 273.72 321.95 257.13 304.20 240.48 286.50 C 237.91 283.48 234.84 280.88 232.52 277.66 C 232.72 238.11 233.35 198.56 233.54 159.01 C 234.10 149.10 233.37 139.16 234.01 129.25 Z" />
</g>
<g id="#00cfffff">
<path fill="#00cfff" opacity="1.00" d=" M 87.19 186.92 L 87.79 186.90 C 135.97 219.87 184.13 252.88 232.48 285.60 C 200.37 307.05 168.61 329.04 136.60 350.63 C 129.10 354.32 120.39 355.52 112.13 354.40 C 104.19 353.28 98.09 347.68 92.00 342.96 C 73.40 327.58 55.60 311.24 37.96 294.77 C 32.82 285.18 32.55 272.79 38.26 263.34 C 49.72 242.80 62.85 223.25 75.76 203.61 C 79.62 198.08 82.99 192.20 87.19 186.92 Z" />
</g>
</svg>
